<svg id="Layer_1" data-name="Layer 1" xmlns="http://www.w3.org/2000/svg" viewBox="0 0 25.5 25.5"><defs><style>.cls-1{fill:#1e1e1e;}.cls-2{fill:#eaeaea;}</style></defs><path class="cls-1" d="M30.15,7.46v17A3.54,3.54,0,0,1,26.6,28h-17a5,5,0,0,1-5-5V7.45a5,5,0,0,1,5-5H25.16A5,5,0,0,1,30.15,7.46Z" transform="translate(-4.65 -2.47)"/><path class="cls-2" d="M30.15,22.42v2A3.55,3.55,0,0,1,28,27.69q-4.6-9.45-9.22-18.89a.21.21,0,0,1,0-.24h4.64a1.89,1.89,0,0,0,.11.25Z" transform="translate(-4.65 -2.47)"/><rect class="cls-2" y="6.09" width="2.55" height="4.45"/><rect class="cls-2" x="6.08" y="6.13" width="4.48" height="19.37"/></svg>